<svg xmlns="http://www.w3.org/2000/svg" width="100" height="30" viewBox="0 0 100 30">
    <g fill="none" fill-rule="evenodd">
        <rect width="100" height="30" fill="#EA002C" fill-opacity=".6" rx="6"/>
        <text fill="#FFF" font-family="NotoSansCJKkr-Medium, Noto Sans CJK KR" font-size="14" font-weight="400">
            <tspan x="40.384" y="20">Delete</tspan>
        </text>
        <path d="M8 6h18v18H8z"/>
        <path fill="#F2F2F2" fill-rule="nonzero" d="M12.5 20.25c0 .825.675 1.5 1.5 1.5h6c.825 0 1.5-.675 1.5-1.5v-9h-9v9zm1.845-5.34l1.057-1.058L17 15.442l1.59-1.59 1.058 1.058-1.59 1.59 1.59 1.59-1.058 1.058-1.59-1.59-1.59 1.59-1.058-1.058 1.59-1.59-1.597-1.59zM19.625 9l-.75-.75h-3.75l-.75.75H11.75v1.5h10.5V9h-2.625z"/>
        <path d="M8 6h18v18H8z"/>
    </g>
</svg>
