<svg xmlns="http://www.w3.org/2000/svg" width="440" height="142" viewBox="0 0 440 142">
    <g fill="none" fill-rule="evenodd">
        <g fill="#4A4A4A" fill-rule="nonzero">
            <path d="M21.5 0a.5.5 0 0 1 .5.5v122a.5.5 0 0 1-1 0V.5a.5.5 0 0 1 .5-.5z"/>
            <path d="M21.5 122h418a.5.5 0 0 1 0 1h-418a.5.5 0 0 1 0-1z"/>
        </g>
        <g transform="translate(25 122)">
            <rect width="1" height="6" x="350" fill="#4A4A4A" rx=".5"/>
            <rect width="1" height="6" x="265" fill="#4A4A4A" rx=".5"/>
            <rect width="1" height="6" x="180" fill="#4A4A4A" rx=".5"/>
            <rect width="1" height="6" x="95" fill="#4A4A4A" rx=".5"/>
            <rect width="1" height="6" x="10" fill="#4A4A4A" rx=".5"/>
            <text fill="#8D8D8D" font-family="NotoSansCJKkr-Regular, Noto Sans CJK KR" font-size="10">
                <tspan x="340.215" y="18">5/19</tspan>
            </text>
            <text fill="#8D8D8D" font-family="NotoSansCJKkr-Regular, Noto Sans CJK KR" font-size="10">
                <tspan x="255.215" y="18">5/18</tspan>
            </text>
            <text fill="#8D8D8D" font-family="NotoSansCJKkr-Regular, Noto Sans CJK KR" font-size="10">
                <tspan x="170.215" y="18">5/17</tspan>
            </text>
            <text fill="#8D8D8D" font-family="NotoSansCJKkr-Regular, Noto Sans CJK KR" font-size="10">
                <tspan x="85.215" y="18">5/16</tspan>
            </text>
            <text fill="#8D8D8D" font-family="NotoSansCJKkr-Regular, Noto Sans CJK KR" font-size="10">
                <tspan x=".215" y="18">5/15</tspan>
            </text>
        </g>
        <g transform="translate(-5)">
            <rect width="4" height="1" x="23" y="103" fill="#4A4A4A" rx=".5"/>
            <rect width="4" height="1" x="23" y="84" fill="#4A4A4A" rx=".5"/>
            <rect width="4" height="1" x="23" y="65" fill="#4A4A4A" rx=".5"/>
            <rect width="4" height="1" x="23" y="46" fill="#4A4A4A" rx=".5"/>
            <rect width="4" height="1" x="23" y="27" fill="#4A4A4A" rx=".5"/>
            <rect width="4" height="1" x="23" y="8" fill="#4A4A4A" rx=".5"/>
            <text fill="#8D8D8D" font-family="NotoSansCJKkr-Regular, Noto Sans CJK KR" font-size="10">
                <tspan x="13.45" y="126">0</tspan>
            </text>
            <text fill="#8D8D8D" font-family="NotoSansCJKkr-Regular, Noto Sans CJK KR" font-size="10">
                <tspan x="5.12" y="107">0.5 </tspan>
            </text>
            <text fill="#8D8D8D" font-family="NotoSansCJKkr-Regular, Noto Sans CJK KR" font-size="10">
                <tspan x="13.45" y="88">1</tspan>
            </text>
            <text fill="#8D8D8D" font-family="NotoSansCJKkr-Regular, Noto Sans CJK KR" font-size="10">
                <tspan x="5.12" y="69">1.5 </tspan>
            </text>
            <text fill="#8D8D8D" font-family="NotoSansCJKkr-Regular, Noto Sans CJK KR" font-size="10">
                <tspan x="13.45" y="50">2</tspan>
            </text>
            <text fill="#8D8D8D" font-family="NotoSansCJKkr-Regular, Noto Sans CJK KR" font-size="10">
                <tspan x="5.12" y="31">2.5 </tspan>
            </text>
            <text fill="#8D8D8D" font-family="NotoSansCJKkr-Regular, Noto Sans CJK KR" font-size="10">
                <tspan x="13.45" y="12">3 </tspan>
            </text>
        </g>
        <path fill="#FFF" fill-rule="nonzero" d="M22 0h418v122H22z"/>
        <g fill="#F2F2F2">
            <path d="M22 104h418v-1H22zM22 85h418v-1H22zM22 66h418v-1H22zM22 47h418v-1H22zM22 28h418v-1H22zM22 9h418V8H22z"/>
        </g>
        <g>
            <path stroke="#A5A5A5" stroke-linecap="round" stroke-linejoin="round" stroke-width="1.5" d="M35.5 92.5l17-57 26 40 42 25 12-40 17-1 18-38 20 93 13-56 10 57 10-3 22-10 13-77 24 92 14-65 19 23 19-50 18 47 16-61 20 37 11-32 24 40"/>
            <g fill="#FFF" stroke="#E34160" stroke-width="2" transform="translate(32 8)">
                <circle cx="3.5" cy="84.5" r="2.5"/>
                <circle cx="20.5" cy="27.5" r="2.5"/>
                <circle cx="46.5" cy="67.5" r="2.5"/>
                <circle cx="88.5" cy="92.5" r="2.5"/>
                <circle cx="100.5" cy="52.5" r="2.5"/>
                <circle cx="117.5" cy="51.5" r="2.5"/>
                <circle cx="135.5" cy="13.5" r="2.5"/>
                <circle cx="155.5" cy="106.5" r="2.5"/>
                <circle cx="168.5" cy="50.5" r="2.5"/>
                <circle cx="178.5" cy="107.5" r="2.5"/>
                <circle cx="210.5" cy="94.5" r="2.5"/>
                <circle cx="223.5" cy="17.5" r="2.5"/>
                <circle cx="247.5" cy="109.5" r="2.5"/>
                <circle cx="261.5" cy="44.5" r="2.5"/>
                <circle cx="280.5" cy="67.5" r="2.5"/>
                <circle cx="299.5" cy="16.5" r="2.5"/>
                <circle cx="317.5" cy="64.5" r="2.5"/>
                <circle cx="333.5" cy="3.5" r="2.5"/>
                <circle cx="353.5" cy="41.5" r="2.5"/>
                <circle cx="364.5" cy="8.5" r="2.5"/>
                <circle cx="388.5" cy="49.5" r="2.5"/>
            </g>
        </g>
    </g>
</svg>
