<svg xmlns="http://www.w3.org/2000/svg" width="18" height="18" viewBox="0 0 18 18">
    <g fill="none" fill-rule="nonzero">
        <path fill="#F2F2F2" fill-opacity=".01" d="M0 0h18v18H0z" opacity=".5"/>
        <path fill="#FFF" d="M14.606 3H4.394A.397.397 0 0 0 4 3.394v10.212c0 .225.188.394.394.394h10.212a.397.397 0 0 0 .394-.394V3.394A.385.385 0 0 0 14.606 3zM13 15.5c0 .225-.266.5-.472.5H2.394A.397.397 0 0 1 2 15.606V5.493C2 5.268 2.294 5 2.5 5c.206 0 .5.287.5.493V15h9.528c.225 0 .472.275.472.5zm-6-7c0-.217.181-.38.38-.38h1.74V6.38c0-.217.18-.38.38-.38.217 0 .38.181.38.38v1.74h1.74c.217 0 .38.18.38.38 0 .217-.181.38-.38.38H9.88v1.74c0 .217-.18.38-.38.38a.383.383 0 0 1-.38-.38V8.88H7.38c-.199 0-.38-.163-.38-.38z"/>
    </g>
</svg>
