<?xml version="1.0" encoding="UTF-8"?>
<svg width="24px" height="24px" viewBox="0 0 24 24" version="1.1" xmlns="http://www.w3.org/2000/svg" xmlns:xlink="http://www.w3.org/1999/xlink">
    <!-- Generator: sketchtool 52.6 (67491) - http://www.bohemiancoding.com/sketch -->
    <title>62ABE599-9696-4E94-BB8C-FB35542C533B</title>
    <desc>Created with sketchtool.</desc>
    <g id="page" stroke="none" stroke-width="1" fill="none" fill-rule="evenodd">
        <g id="SPC_MyPara_Basic" transform="translate(-521.000000, -216.000000)">
            <g id="body" transform="translate(240.000000, 0.000000)">
                <g id="board">
                    <g transform="translate(246.000000, 80.000000)">
                        <g id="table" transform="translate(20.000000, 61.000000)">
                            <g id="row">
                                <g transform="translate(0.000000, 70.000000)">
                                    <g id="cell">
                                        <g id="IC/Contents/24px/ic_chkbox_default" transform="translate(15.000000, 5.000000)">
                                            <polygon id="Path" fill-opacity="0.01" fill="#FFFFFF" opacity="0.5" points="0 0 24 0 24 24 0 24"></polygon>
                                            <path d="M18,19 L6,19 C5.45,19 5,18.55 5,18 L5,6 C5,5.45 5.45,5 6,5 L18,5 C18.55,5 19,5.45 19,6 L19,18 C19,18.55 18.55,19 18,19 Z M19,3 L5,3 C3.9,3 3,3.9 3,5 L3,19 C3,20.1 3.9,21 5,21 L19,21 C20.1,21 21,20.1 21,19 L21,5 C21,3.9 20.1,3 19,3 Z" id="Shape" fill="#C7C7C7" fill-rule="nonzero"></path>
                                        </g>
                                    </g>
                                </g>
                            </g>
                        </g>
                    </g>
                </g>
            </g>
        </g>
    </g>
</svg>