<?xml version="1.0" encoding="UTF-8"?>
<svg width="24px" height="24px" viewBox="0 0 24 24" version="1.1" xmlns="http://www.w3.org/2000/svg" xmlns:xlink="http://www.w3.org/1999/xlink">
    <!-- Generator: sketchtool 52.6 (67491) - http://www.bohemiancoding.com/sketch -->
    <title>EB68788E-E134-4563-AB86-F8A63B8F6FB9</title>
    <desc>Created with sketchtool.</desc>
    <g id="page" stroke="none" stroke-width="1" fill="none" fill-rule="evenodd">
        <g id="SPC_MyPara_Basic" transform="translate(-521.000000, -181.000000)">
            <g id="body" transform="translate(240.000000, 0.000000)">
                <g id="board">
                    <g transform="translate(246.000000, 80.000000)">
                        <g id="table" transform="translate(20.000000, 61.000000)">
                            <g id="row">
                                <g transform="translate(0.000000, 35.000000)">
                                    <g id="cell">
                                        <g id="IC/Contents/24px/ic_chkbox_selected" transform="translate(15.000000, 5.000000)">
                                            <polygon id="Path" fill-opacity="0.01" fill="#FFFFFF" opacity="0.5" points="0 0 24 0 24 24 0 24"></polygon>
                                            <path d="M19,3 L5,3 C3.9,3 3,3.9 3,5 L3,19 C3,20.1 3.9,21 5,21 L19,21 C20.1,21 21,20.1 21,19 L21,5 C21,3.9 20.1,3 19,3 Z M10.71,16.29 C10.32,16.68 9.69,16.68 9.3,16.29 L5.71,12.7 C5.32,12.31 5.32,11.68 5.71,11.29 C6.1,10.9 6.73,10.9 7.12,11.29 L10,14.17 L16.88,7.29 C17.27,6.9 17.9,6.9 18.29,7.29 C18.68,7.68 18.68,8.31 18.29,8.7 L10.71,16.29 Z" id="Shape" fill="#E34160" fill-rule="nonzero"></path>
                                        </g>
                                    </g>
                                </g>
                            </g>
                        </g>
                    </g>
                </g>
            </g>
        </g>
    </g>
</svg>