<svg xmlns="http://www.w3.org/2000/svg" width="44" height="44" viewBox="0 0 44 44">
    <g fill="none" fill-rule="evenodd">
        <rect width="44" height="44" fill="#000" fill-opacity=".2" rx="8" transform="matrix(-1 0 0 1 44 0)"/>
        <path fill="#000" fill-opacity=".01" d="M42 2H2v40h40z" opacity=".5"/>
        <path fill="#57677F" fill-rule="nonzero" d="M9 24v7h11v-7H9zm12.25-2c.414 0 .75.352.75.786v9.428c0 .434-.336.786-.75.786H7.75c-.414 0-.75-.352-.75-.786v-9.428c0-.434.336-.786.75-.786h13.5zM35 31v-7h-8v7h8zm2 1.214c0 .434-.384.786-.857.786H25.857c-.473 0-.857-.352-.857-.786v-9.428c0-.434.384-.786.857-.786h10.286c.473 0 .857.352.857.786v9.428zM35 16v-3H9v3h26zm1.21 2H7.79c-.437 0-.79-.392-.79-.875v-5.25c0-.483.353-.875.79-.875h28.42c.437 0 .79.392.79.875v5.25c0 .483-.353.875-.79.875z"/>
    </g>
</svg>
