<svg xmlns="http://www.w3.org/2000/svg" width="12" height="14" viewBox="0 0 12 14">
    <g fill="none" fill-rule="evenodd">
        <path d="M-3-2h18v18H-3z"/>
        <path fill="#F2F2F2" fill-rule="nonzero" d="M1.5 12.25c0 .825.675 1.5 1.5 1.5h6c.825 0 1.5-.675 1.5-1.5v-9h-9v9zm1.845-5.34l1.057-1.058L6 7.442l1.59-1.59L8.648 6.91 7.058 8.5l1.59 1.59-1.058 1.058L6 9.558l-1.59 1.59-1.058-1.058 1.59-1.59-1.597-1.59zM8.625 1l-.75-.75h-3.75l-.75.75H.75v1.5h10.5V1H8.625z"/>
        <path d="M-3-2h18v18H-3z"/>
    </g>
</svg>
