<?xml version="1.0" encoding="UTF-8"?>
<svg width="24px" height="24px" viewBox="0 0 24 24" version="1.1" xmlns="http://www.w3.org/2000/svg" xmlns:xlink="http://www.w3.org/1999/xlink">
    <!-- Generator: Sketch 59.1 (86144) - https://sketch.com -->
    <title>Excel Export</title>
    <desc>Created with Sketch.</desc>
    <g id="Excel-Export" stroke="none" stroke-width="1" fill="none" fill-rule="evenodd">
        <g id="file-excel" transform="translate(2.000000, 2.000000)" fill="#ffffff" fill-rule="nonzero">
            <path d="M2,0 C0.8954305,0 0,0.8954305 0,2 L0,18 C0,19.1045695 0.8954305,20 2,20 L14,20 C15.1045695,20 16,19.1045695 16,18 L14,18 C12.8954305,18 12,17.1045695 12,16 L12,11 C12,9.8954305 12.8954305,9 14,9 L16,9 L16,9 L16,6 L10,0 L2,0 Z M8,18 L6,14.6 L4,18 L2.2,18 L5.1,13.5 L2.2,9 L4,9 L6,12.4 L8,9 L9.8,9 L6.9,13.5 L9.8,18 L8,18 Z M9,7 L9,1.5 L14.5,7 L9,7 Z" id="Shape"></path>
        </g>
        <polygon id="Arrow" fill="#ffffff" fill-rule="nonzero" points="16 15 20.5 15 17.5 12 19 12 22 15 22 16 19 19 17.5 19 20.5 16 16 16"></polygon>
    </g>
</svg>