<?xml version="1.0" encoding="UTF-8"?>
<svg width="44px" height="44px" viewBox="0 0 44 44" version="1.1" xmlns="http://www.w3.org/2000/svg" xmlns:xlink="http://www.w3.org/1999/xlink">
    <!-- Generator: sketchtool 52.6 (67491) - http://www.bohemiancoding.com/sketch -->
    <title>5F6B6FE9-AEAA-415E-A091-E9C784851603</title>
    <desc>Created with sketchtool.</desc>
    <g id="page" stroke="none" stroke-width="1" fill="none" fill-rule="evenodd">
        <g id="SPC_MyPara_Basic" transform="translate(-18.000000, -306.000000)" fill="#FFFFFF">
            <g id="snm">
                <g id="btns" transform="translate(0.000000, 56.000000)">
                    <g id="btn" transform="translate(0.000000, 240.000000)">
                        <g id="ic_eap_default" transform="translate(18.000000, 10.000000)">
                            <rect id="highlight" fill-opacity="0.2" transform="translate(22.000000, 22.000000) scale(-1, 1) translate(-22.000000, -22.000000) " x="0" y="0" width="44" height="44" rx="8"></rect>
                            <rect id="path" fill-opacity="0.01" opacity="0.5" transform="translate(22.000000, 22.000000) scale(-1, 1) translate(-22.000000, -22.000000) " x="6" y="6" width="32" height="32"></rect>
                            <path d="M23.6,32.4 L20.4,32.4 L20.4,34 C20.4,34.8836556 19.6836556,35.6 18.8,35.6 C17.9163444,35.6 17.2,34.8836556 17.2,34 L17.2,32.4 L14.8,32.4 C13.0326888,32.4 11.6,30.9673112 11.6,29.2 L11.6,26.8 L10,26.8 C9.1163444,26.8 8.4,26.0836556 8.4,25.2 C8.4,24.3163444 9.1163444,23.6 10,23.6 L11.6,23.6 L11.6,20.4 L10,20.4 C9.1163444,20.4 8.4,19.6836556 8.4,18.8 C8.4,17.9163444 9.1163444,17.2 10,17.2 L11.6,17.2 L11.6,14.8 C11.6,13.0326888 13.0326888,11.6 14.8,11.6 L17.2,11.6 L17.2,10 C17.2,9.1163444 17.9163444,8.4 18.8,8.4 C19.6836556,8.4 20.4,9.1163444 20.4,10 L20.4,11.6 L23.6,11.6 L23.6,10 C23.6,9.1163444 24.3163444,8.4 25.2,8.4 C26.0836556,8.4 26.8,9.1163444 26.8,10 L26.8,11.6 L29.2,11.6 C30.9673112,11.6 32.4,13.0326888 32.4,14.8 L32.4,17.2 L34,17.2 C34.8836556,17.2 35.6,17.9163444 35.6,18.8 C35.6,19.6836556 34.8836556,20.4 34,20.4 L32.4,20.4 L32.4,23.6 L34,23.6 C34.8836556,23.6 35.6,24.3163444 35.6,25.2 C35.6,26.0836556 34.8836556,26.8 34,26.8 L32.4,26.8 L32.4,29.2 C32.4,30.9673112 30.9673112,32.4 29.2,32.4 L26.8,32.4 L26.8,34 C26.8,34.8836556 26.0836556,35.6 25.2,35.6 C24.3163444,35.6 23.6,34.8836556 23.6,34 L23.6,32.4 Z M13.2,14.8 L13.2,29.2 C13.2,30.0836556 13.9163444,30.8 14.8,30.8 L29.2,30.8 C30.0836556,30.8 30.8,30.0836556 30.8,29.2 L30.8,14.8 C30.8,13.9163444 30.0836556,13.2 29.2,13.2 L14.8,13.2 C13.9163444,13.2 13.2,13.9163444 13.2,14.8 Z M19.6,20.4 L19.6,23.6 C19.6,24.0418278 19.9581722,24.4 20.4,24.4 L23.6,24.4 C24.0418278,24.4 24.4,24.0418278 24.4,23.6 L24.4,20.4 C24.4,19.9581722 24.0418278,19.6 23.6,19.6 L20.4,19.6 C19.9581722,19.6 19.6,19.9581722 19.6,20.4 Z M19.6,18 L24.4,18 C25.2836556,18 26,18.7163444 26,19.6 L26,24.4 C26,25.2836556 25.2836556,26 24.4,26 L19.6,26 C18.7163444,26 18,25.2836556 18,24.4 L18,19.6 C18,18.7163444 18.7163444,18 19.6,18 Z" id="Combined-Shape-Copy" fill-rule="nonzero" opacity="0.5"></path>
                        </g>
                    </g>
                </g>
            </g>
        </g>
    </g>
</svg>