<svg xmlns="http://www.w3.org/2000/svg" width="44" height="44" viewBox="0 0 44 44">
    <g fill="none" fill-rule="evenodd">
        <rect width="44" height="44" fill="#000" fill-opacity=".2" rx="8" transform="matrix(-1 0 0 1 44 0)"/>
        <path fill="#FFF" fill-opacity=".01" d="M38 6H6v32h32z" opacity=".5"/>
        <path fill="#57677F" fill-rule="nonzero" d="M23.6 32.4h-3.2V34a1.6 1.6 0 1 1-3.2 0v-1.6h-2.4a3.2 3.2 0 0 1-3.2-3.2v-2.4H10a1.6 1.6 0 1 1 0-3.2h1.6v-3.2H10a1.6 1.6 0 1 1 0-3.2h1.6v-2.4a3.2 3.2 0 0 1 3.2-3.2h2.4V10a1.6 1.6 0 1 1 3.2 0v1.6h3.2V10a1.6 1.6 0 1 1 3.2 0v1.6h2.4a3.2 3.2 0 0 1 3.2 3.2v2.4H34a1.6 1.6 0 1 1 0 3.2h-1.6v3.2H34a1.6 1.6 0 1 1 0 3.2h-1.6v2.4a3.2 3.2 0 0 1-3.2 3.2h-2.4V34a1.6 1.6 0 1 1-3.2 0v-1.6zM13.2 14.8v14.4a1.6 1.6 0 0 0 1.6 1.6h14.4a1.6 1.6 0 0 0 1.6-1.6V14.8a1.6 1.6 0 0 0-1.6-1.6H14.8a1.6 1.6 0 0 0-1.6 1.6zm6.4 5.6v3.2a.8.8 0 0 0 .8.8h3.2a.8.8 0 0 0 .8-.8v-3.2a.8.8 0 0 0-.8-.8h-3.2a.8.8 0 0 0-.8.8zm0-2.4h4.8a1.6 1.6 0 0 1 1.6 1.6v4.8a1.6 1.6 0 0 1-1.6 1.6h-4.8a1.6 1.6 0 0 1-1.6-1.6v-4.8a1.6 1.6 0 0 1 1.6-1.6z"/>
    </g>
</svg>
