<?xml version="1.0" encoding="UTF-8"?>
<svg width="24px" height="24px" viewBox="0 0 24 24" version="1.1" xmlns="http://www.w3.org/2000/svg" xmlns:xlink="http://www.w3.org/1999/xlink">
    <!-- Generator: sketchtool 52.6 (67491) - http://www.bohemiancoding.com/sketch -->
    <title>7B00AC92-27F3-4B97-A6A0-C3AAF0E503F7</title>
    <desc>Created with sketchtool.</desc>
    <g id="page" stroke="none" stroke-width="1" fill="none" fill-rule="evenodd">
        <g id="SPC_MyPara_Basic" transform="translate(-1306.000000, -91.000000)">
            <g id="body" transform="translate(240.000000, 0.000000)">
                <g id="board">
                    <g transform="translate(246.000000, 80.000000)">
                        <g id="title">
                            <g id="IC/Board/24px//ic_expand_default" transform="translate(820.000000, 11.000000)">
                                <polygon id="Path" fill-opacity="0.01" fill="#FFFFFF" opacity="0.5" points="0 0 24 0 24 24 0 24"></polygon>
                                <path d="M15,3 L17.3,5.3 L14.41,8.17 L15.83,9.59 L18.7,6.7 L21,9 L21,3 L15,3 Z M3,9 L5.3,6.7 L8.17,9.59 L9.59,8.17 L6.7,5.3 L9,3 L3,3 L3,9 Z M9,21 L6.7,18.7 L9.59,15.83 L8.17,14.41 L5.3,17.3 L3,15 L3,21 L9,21 Z M21,15 L18.7,17.3 L15.83,14.41 L14.41,15.83 L17.3,18.7 L15,21 L21,21 L21,15 Z" id="Shape" fill="#999999" fill-rule="nonzero"></path>
                            </g>
                        </g>
                    </g>
                </g>
            </g>
        </g>
    </g>
</svg>