<svg xmlns="http://www.w3.org/2000/svg" width="28" height="28" viewBox="0 0 28 28">
    <g fill="none" fill-rule="evenodd">
        <path fill="#FFF" fill-opacity=".01" d="M0 0h28v28H0z" opacity=".5"/>
        <path fill="#A5A5A5" fill-rule="nonzero" d="M14 24c5.523 0 10-4.477 10-10S19.523 4 14 4 4 8.477 4 14s4.477 10 10 10zm0 2C7.373 26 2 20.627 2 14S7.373 2 14 2s12 5.373 12 12-5.373 12-12 12zm0-6a1 1 0 1 1 0-2 1 1 0 0 1 0 2zm-2.48-7.81c-.59 0-1.02-.58-.82-1.14.52-1.52 2.04-2.53 3.81-2.3 1.55.2 2.79 1.49 2.98 3.04.29 2.32-1.94 2.71-2.48 4.18-.08.2-.12.42-.12.67h-1.76c0-.42.06-.77.16-1.08 0-.01 0-.03.01-.05 0-.02.01-.03.02-.05.06-.16.12-.31.2-.45h.01c.74-1.27 2.23-1.5 2.23-2.82 0-.93-.82-1.75-1.75-1.75-.75 0-1.42.52-1.66 1.21-.11.31-.37.54-.7.54h-.13z"/>
    </g>
</svg>
