<?xml version="1.0" encoding="UTF-8"?>
<svg width="28px" height="28px" viewBox="0 0 28 28" version="1.1" xmlns="http://www.w3.org/2000/svg" xmlns:xlink="http://www.w3.org/1999/xlink">
    <!-- Generator: sketchtool 52.6 (67491) - http://www.bohemiancoding.com/sketch -->
    <title>D454E9FA-AE77-4430-9814-24A277B6DDD6</title>
    <desc>Created with sketchtool.</desc>
    <g id="page" stroke="none" stroke-width="1" fill="none" fill-rule="evenodd">
        <g id="SPC_MyPara_Basic" transform="translate(-1142.000000, -14.000000)">
            <g id="body" transform="translate(240.000000, 0.000000)">
                <g id="top">
                    <g id="btns" transform="translate(748.000000, 0.000000)">
                        <g id="btn" transform="translate(144.000000, 0.000000)">
                            <g id="IC/Top/28px/ic_help_default" transform="translate(10.000000, 14.000000)">
                                <rect id="path" fill-opacity="0.01" fill="#FFFFFF" opacity="0.5" x="0" y="0" width="28" height="28"></rect>
                                <path d="M14,24 C19.5228475,24 24,19.5228475 24,14 C24,8.4771525 19.5228475,4 14,4 C8.4771525,4 4,8.4771525 4,14 C4,19.5228475 8.4771525,24 14,24 Z M14,26 C7.372583,26 2,20.627417 2,14 C2,7.372583 7.372583,2 14,2 C20.627417,2 26,7.372583 26,14 C26,20.627417 20.627417,26 14,26 Z M14,20 C13.4477153,20 13,19.5522847 13,19 C13,18.4477153 13.4477153,18 14,18 C14.5522847,18 15,18.4477153 15,19 C15,19.5522847 14.5522847,20 14,20 Z M11.52,12.19 C10.93,12.19 10.5,11.61 10.7,11.05 C11.22,9.53 12.74,8.52 14.51,8.75 C16.06,8.95 17.3,10.24 17.49,11.79 C17.78,14.11 15.55,14.5 15.01,15.97 C14.93,16.17 14.89,16.39 14.89,16.64 L13.13,16.64 C13.13,16.22 13.19,15.87 13.29,15.56 C13.29,15.55 13.29,15.53 13.3,15.51 C13.3,15.49 13.31,15.48 13.32,15.46 C13.38,15.3 13.44,15.15 13.52,15.01 L13.53,15.01 C14.27,13.74 15.76,13.51 15.76,12.19 C15.76,11.26 14.94,10.44 14.01,10.44 C13.26,10.44 12.59,10.96 12.35,11.65 C12.24,11.96 11.98,12.19 11.65,12.19 L11.52,12.19 Z" id="Combined-Shape" fill="#A5A5A5" fill-rule="nonzero"></path>
                            </g>
                        </g>
                    </g>
                </g>
            </g>
        </g>
    </g>
</svg>