<?xml version="1.0" encoding="UTF-8"?>
<svg width="44px" height="44px" viewBox="0 0 44 44" version="1.1" xmlns="http://www.w3.org/2000/svg" xmlns:xlink="http://www.w3.org/1999/xlink">
    <!-- Generator: sketchtool 52.6 (67491) - http://www.bohemiancoding.com/sketch -->
    <title>CF674CA5-C9EE-4A7E-895E-346CEF034982</title>
    <desc>Created with sketchtool.</desc>
    <g id="page" stroke="none" stroke-width="1" fill="none" fill-rule="evenodd">
        <g id="SPC_MyPara_Basic" transform="translate(-18.000000, -386.000000)" fill="#FFFFFF">
            <g id="snm">
                <g id="btns" transform="translate(0.000000, 56.000000)">
                    <g id="btn" transform="translate(0.000000, 320.000000)">
                        <g id="ic_more_default" transform="translate(18.000000, 10.000000)">
                            <rect id="highlight" fill-opacity="0.2" transform="translate(22.000000, 22.000000) scale(-1, 1) translate(-22.000000, -22.000000) " x="0" y="0" width="44" height="44" rx="8"></rect>
                            <rect id="path" fill-opacity="0.01" opacity="0.5" transform="translate(22.000000, 22.000000) scale(-1, 1) translate(-22.000000, -22.000000) " x="2" y="2" width="40" height="40"></rect>
                            <path d="M12,24 C10.8954305,24 10,23.1045695 10,22 C10,20.8954305 10.8954305,20 12,20 C13.1045695,20 14,20.8954305 14,22 C14,23.1045695 13.1045695,24 12,24 Z M22,24 C20.8954305,24 20,23.1045695 20,22 C20,20.8954305 20.8954305,20 22,20 C23.1045695,20 24,20.8954305 24,22 C24,23.1045695 23.1045695,24 22,24 Z M32,24 C30.8954305,24 30,23.1045695 30,22 C30,20.8954305 30.8954305,20 32,20 C33.1045695,20 34,20.8954305 34,22 C34,23.1045695 33.1045695,24 32,24 Z" id="Combined-Shape" opacity="0.5"></path>
                        </g>
                    </g>
                </g>
            </g>
        </g>
    </g>
</svg>