<svg xmlns="http://www.w3.org/2000/svg" width="44" height="44" viewBox="0 0 44 44">
    <g fill="none" fill-rule="evenodd">
        <rect width="44" height="44" fill="#FF7A01" rx="8" transform="matrix(-1 0 0 1 44 0)"/>
        <path fill="#FFF" fill-opacity=".01" d="M38 6H6v32h32z" opacity=".5"/>
        <path fill="#FFF" fill-rule="nonzero" d="M27.6 30.8v2.4a.8.8 0 0 1-.8.8h-9.6a.8.8 0 0 1-.8-.8v-2.4h-4.8a3.2 3.2 0 0 1-3.2-3.2V13.2a3.2 3.2 0 0 1 3.2-3.2h20.8a3.2 3.2 0 0 1 3.2 3.2v14.4a3.2 3.2 0 0 1-3.2 3.2h-4.8zM10 13.2v14.4a1.6 1.6 0 0 0 1.6 1.6h20.8a1.6 1.6 0 0 0 1.6-1.6V13.2a1.6 1.6 0 0 0-1.6-1.6H11.6a1.6 1.6 0 0 0-1.6 1.6zm3.2.8h.8a.8.8 0 0 1 .8.8v.8a.8.8 0 0 1-.8.8h-.8a.8.8 0 0 1-.8-.8v-.8a.8.8 0 0 1 .8-.8zm4.8.8h12.8a.8.8 0 1 1 0 1.6H18a.8.8 0 1 1 0-1.6zm-4.8 4h.8a.8.8 0 0 1 .8.8v.8a.8.8 0 0 1-.8.8h-.8a.8.8 0 0 1-.8-.8v-.8a.8.8 0 0 1 .8-.8zm0 4.8h.8a.8.8 0 0 1 .8.8v.8a.8.8 0 0 1-.8.8h-.8a.8.8 0 0 1-.8-.8v-.8a.8.8 0 0 1 .8-.8zm4.8-4h12.8a.8.8 0 1 1 0 1.6H18a.8.8 0 1 1 0-1.6zm0 4.8h12.8a.8.8 0 1 1 0 1.6H18a.8.8 0 1 1 0-1.6z"/>
    </g>
</svg>
