<?xml version="1.0" encoding="UTF-8"?>
<svg width="44px" height="44px" viewBox="0 0 44 44" version="1.1" xmlns="http://www.w3.org/2000/svg" xmlns:xlink="http://www.w3.org/1999/xlink">
    <!-- Generator: sketchtool 52.6 (67491) - http://www.bohemiancoding.com/sketch -->
    <title>04636C57-6443-4D63-BDD7-C2DE25E9267C</title>
    <desc>Created with sketchtool.</desc>
    <g id="page" stroke="none" stroke-width="1" fill="none" fill-rule="evenodd">
        <g id="SPC_MyPara_Basic" transform="translate(-18.000000, -146.000000)" fill="#FFFFFF">
            <g id="snm">
                <g id="btns" transform="translate(0.000000, 56.000000)">
                    <g id="btn" transform="translate(0.000000, 80.000000)">
                        <g id="ic_mes_default" transform="translate(18.000000, 10.000000)">
                            <rect id="highlight" fill-opacity="0.2" transform="translate(22.000000, 22.000000) scale(-1, 1) translate(-22.000000, -22.000000) " x="0" y="0" width="44" height="44" rx="8"></rect>
                            <rect id="path" fill-opacity="0.01" opacity="0.5" transform="translate(22.000000, 22.000000) scale(-1, 1) translate(-22.000000, -22.000000) " x="6" y="6" width="32" height="32"></rect>
                            <path d="M27.6,30.8 L27.6,33.2 C27.6,33.6418278 27.2418278,34 26.8,34 L17.2,34 C16.7581722,34 16.4,33.6418278 16.4,33.2 L16.4,30.8 L11.6,30.8 C9.8326888,30.8 8.4,29.3673112 8.4,27.6 L8.4,13.2 C8.4,11.4326888 9.8326888,10 11.6,10 L32.4,10 C34.1673112,10 35.6,11.4326888 35.6,13.2 L35.6,27.6 C35.6,29.3673112 34.1673112,30.8 32.4,30.8 L27.6,30.8 Z M10,13.2 L10,27.6 C10,28.4836556 10.7163444,29.2 11.6,29.2 L32.4,29.2 C33.2836556,29.2 34,28.4836556 34,27.6 L34,13.2 C34,12.3163444 33.2836556,11.6 32.4,11.6 L11.6,11.6 C10.7163444,11.6 10,12.3163444 10,13.2 Z M13.2,14 L14,14 C14.4418278,14 14.8,14.3581722 14.8,14.8 L14.8,15.6 C14.8,16.0418278 14.4418278,16.4 14,16.4 L13.2,16.4 C12.7581722,16.4 12.4,16.0418278 12.4,15.6 L12.4,14.8 C12.4,14.3581722 12.7581722,14 13.2,14 Z M18,14.8 L30.8,14.8 C31.2418278,14.8 31.6,15.1581722 31.6,15.6 C31.6,16.0418278 31.2418278,16.4 30.8,16.4 L18,16.4 C17.5581722,16.4 17.2,16.0418278 17.2,15.6 C17.2,15.1581722 17.5581722,14.8 18,14.8 Z M13.2,18.8 L14,18.8 C14.4418278,18.8 14.8,19.1581722 14.8,19.6 L14.8,20.4 C14.8,20.8418278 14.4418278,21.2 14,21.2 L13.2,21.2 C12.7581722,21.2 12.4,20.8418278 12.4,20.4 L12.4,19.6 C12.4,19.1581722 12.7581722,18.8 13.2,18.8 Z M13.2,23.6 L14,23.6 C14.4418278,23.6 14.8,23.9581722 14.8,24.4 L14.8,25.2 C14.8,25.6418278 14.4418278,26 14,26 L13.2,26 C12.7581722,26 12.4,25.6418278 12.4,25.2 L12.4,24.4 C12.4,23.9581722 12.7581722,23.6 13.2,23.6 Z M18,19.6 L30.8,19.6 C31.2418278,19.6 31.6,19.9581722 31.6,20.4 C31.6,20.8418278 31.2418278,21.2 30.8,21.2 L18,21.2 C17.5581722,21.2 17.2,20.8418278 17.2,20.4 C17.2,19.9581722 17.5581722,19.6 18,19.6 Z M18,24.4 L30.8,24.4 C31.2418278,24.4 31.6,24.7581722 31.6,25.2 C31.6,25.6418278 31.2418278,26 30.8,26 L18,26 C17.5581722,26 17.2,25.6418278 17.2,25.2 C17.2,24.7581722 17.5581722,24.4 18,24.4 Z" id="Combined-Shape" fill-rule="nonzero" opacity="0.5"></path>
                        </g>
                    </g>
                </g>
            </g>
        </g>
    </g>
</svg>