<?xml version="1.0" encoding="UTF-8"?>
<svg width="28px" height="28px" viewBox="0 0 28 28" version="1.1" xmlns="http://www.w3.org/2000/svg" xmlns:xlink="http://www.w3.org/1999/xlink">
    <!-- Generator: sketchtool 52.6 (67491) - http://www.bohemiancoding.com/sketch -->
    <title>ABB27E62-B5E0-4B20-B79A-8634DC8E67BA</title>
    <desc>Created with sketchtool.</desc>
    <g id="page" stroke="none" stroke-width="1" fill="none" fill-rule="evenodd">
        <g id="SPC_MyPara_Basic" transform="translate(-1046.000000, -14.000000)">
            <g id="body" transform="translate(240.000000, 0.000000)">
                <g id="top">
                    <g id="btns" transform="translate(748.000000, 0.000000)">
                        <g id="btn" transform="translate(48.000000, 0.000000)">
                            <g id="IC/Top/28px/ic_notification_on" transform="translate(10.000000, 14.000000)">
                                <rect id="path" fill-opacity="0.01" fill="#FFFFFF" opacity="0.5" x="0" y="0" width="28" height="28"></rect>
                                <path d="M16,4.25203497 C19.4504544,5.14012056 22,8.27232114 22,12 L22,19 L23.7071068,20.7071068 C23.8946432,20.8946432 24,21.1489971 24,21.4142136 L24,21.5 C24,21.7761424 23.7761424,22 23.5,22 L4.5,22 C4.22385763,22 4,21.7761424 4,21.5 L4,21.4142136 C4,21.1489971 4.10535684,20.8946432 4.29289322,20.7071068 L6,19 L6,12 C6,8.27232114 8.54954557,5.14012056 12,4.25203497 L12,4 C12,2.8954305 12.8954305,2 14,2 C15.1045695,2 16,2.8954305 16,4 L16,4.25203497 Z M14,25 C12.8954305,25 12,24.1045695 12,23 C13,23 12.8954305,23 14,23 C15.1045695,23 15,23 16,23 C16,24.1045695 15.1045695,25 14,25 Z" id="Combined-Shape" fill="#A5A5A5"></path>
                                <circle id="light" fill="#EA002C" fill-rule="nonzero" cx="20.5" cy="6.5" r="2.5"></circle>
                            </g>
                        </g>
                    </g>
                </g>
            </g>
        </g>
    </g>
</svg>