<svg xmlns="http://www.w3.org/2000/svg" width="24" height="24" viewBox="0 0 24 24">
    <g fill="none" fill-rule="evenodd">
        <path fill="#FFF" fill-opacity=".01" d="M0 0h24v24H0z" opacity=".5"/>
        <path fill="#999" d="M13.835 17.684c.345-.522.498-1.094.439-1.59-.044-.363-.047-.862.162-1.162l3.168-4.546c.209-.3.39-.531.405-.517l.026.026c.402.4 1.094.396 1.72.042.318-.18.315-.61.056-.868l-4.898-4.88c-.259-.259-.69-.262-.871.055-.355.624-.36 1.313.043 1.715l.026.025c.014.015-.219.195-.52.403l-4.56 3.157c-.302.209-.803.206-1.167.163-.498-.06-1.072.093-1.596.437-.306.201-.303.628-.044.886l2.903 2.893-3.224 3.212.007.008C4.618 18.5 3.8 19.715 4.043 19.957c.243.243 1.463-.573 2.825-1.86l.007.007 3.224-3.213 2.846 2.837c.26.258.688.261.89-.044z"/>
    </g>
</svg>
