<svg xmlns="http://www.w3.org/2000/svg" width="24" height="24" viewBox="0 0 24 24">
    <g fill="none" fill-rule="evenodd">
        <path fill="#FFF" fill-opacity=".01" d="M0 0h24v24H0z" opacity=".5"/>
        <path fill="#999" d="M19.581 6.44c.256.149.419.43.419.728l-.054 3.236a.791.791 0 0 1-.346.655.785.785 0 0 1-.73.094l-2.937-1.142a.843.843 0 0 1-.51-.673.836.836 0 0 1 .346-.767l.803-.56.09-.063C15.517 6.603 13.84 5.79 12.055 5.79c-2.46 0-4.667 1.501-5.626 3.824a.872.872 0 0 1-.804.547.868.868 0 0 1-.34-.071.904.904 0 0 1-.463-1.173C6.054 5.93 8.893 4 12.055 4c2.37 0 4.582 1.123 6.055 2.953l.65-.476a.859.859 0 0 1 .438-.13c.128 0 .273.037.383.092zM4.42 17.56a.853.853 0 0 1-.42-.728l.055-3.237a.79.79 0 0 1 .346-.655.785.785 0 0 1 .73-.093l2.936 1.14a.848.848 0 0 1 .51.675c.037.3-.11.598-.346.766l-.802.561-.09.062c1.145 1.345 2.821 2.16 4.607 2.16 2.459 0 4.667-1.502 5.626-3.825a.87.87 0 0 1 .803-.547c.114 0 .229.024.34.072.443.192.651.717.463 1.172C17.947 18.07 15.108 20 11.946 20c-2.37 0-4.583-1.123-6.056-2.953l-.65.476a.87.87 0 0 1-.438.13.885.885 0 0 1-.382-.093z"/>
    </g>
</svg>
