<svg xmlns="http://www.w3.org/2000/svg" width="22" height="23" viewBox="0 0 22 23">
    <g fill="none" fill-rule="evenodd">
        <path d="M-3-3h28v28H-3z"/>
        <path fill="#A5A5A5" fill-rule="nonzero" d="M19.405 12.627l2.386 1.897a.587.587 0 0 1 .136.737l-2.262 3.979a.547.547 0 0 1-.69.253l-2.816-1.15a8.655 8.655 0 0 1-1.91 1.127l-.43 3.047a.554.554 0 0 1-.555.483H8.741a.554.554 0 0 1-.554-.483l-.43-3.047a8.23 8.23 0 0 1-1.911-1.127l-2.816 1.15a.564.564 0 0 1-.69-.253L.078 15.26a.587.587 0 0 1 .136-.736L2.6 12.627a9.272 9.272 0 0 1-.079-1.127c0-.38.034-.759.08-1.127L.213 8.476a.573.573 0 0 1-.136-.737L2.34 3.761a.547.547 0 0 1 .69-.253l2.816 1.15a8.655 8.655 0 0 1 1.91-1.128l.43-3.047A.554.554 0 0 1 8.742 0h4.523c.283 0 .52.207.554.483l.43 3.047a8.23 8.23 0 0 1 1.911 1.127l2.816-1.15a.564.564 0 0 1 .69.254l2.262 3.978a.587.587 0 0 1-.136.737l-2.386 1.897c.045.368.079.736.079 1.127s-.034.759-.08 1.127zM11 15.5a4 4 0 1 0 0-8 4 4 0 0 0 0 8z"/>
    </g>
</svg>
