<?xml version="1.0" encoding="UTF-8"?>
<svg width="18px" height="18px" viewBox="0 0 18 18" version="1.1" xmlns="http://www.w3.org/2000/svg" xmlns:xlink="http://www.w3.org/1999/xlink">
    <!-- Generator: sketchtool 52.6 (67491) - http://www.bohemiancoding.com/sketch -->
    <title>AB3309A3-DF4F-4669-A9A7-68AD388E9705</title>
    <desc>Created with sketchtool.</desc>
    <g id="page" stroke="none" stroke-width="1" fill="none" fill-rule="evenodd">
        <g id="SPC_MyPara_Basic" transform="translate(-1005.000000, -93.000000)">
            <g id="body" transform="translate(240.000000, 0.000000)">
                <g id="board">
                    <g transform="translate(246.000000, 80.000000)">
                        <g id="title">
                            <g id="btn_save_disabled" transform="translate(511.000000, 7.000000)">
                                <g id="IC/Contents/18px/ic_save" transform="translate(8.000000, 6.000000)">
                                    <rect id="Rectangle" fill-opacity="0.01" fill="#F2F2F2" fill-rule="nonzero" opacity="0.5" x="0" y="0" width="18" height="18"></rect>
                                    <g id="Group" transform="translate(2.000000, 1.000000)" fill="#FFFFFF">
                                        <path d="M1.56059113,0.285714286 C4.25615764,0.285714286 6.99901478,0.285714286 9.69458128,0.285714286 C9.8364532,0.285714286 9.97832512,0.333004926 10.0729064,0.474876847 L13.5724138,4.30541872 C13.6669951,4.4 13.7142857,4.54187192 13.7142857,4.6364532 L13.7142857,13.5743842 C13.7142857,14.4256158 13.0522167,15.2295567 12.1536946,15.2295567 L1.56059113,15.2295567 C0.662068966,15.2295567 0,14.4256158 0,13.5743842 L0,1.9408867 C0,1.08965517 0.662068966,0.285714286 1.56059113,0.285714286 Z M2.83743842,14.2837438 L2.83743842,8.8453202 C2.83743842,8.56157635 3.07389163,8.37241379 3.31034483,8.37241379 L10.4039409,8.37241379 C10.6403941,8.37241379 10.8768473,8.608867 10.8768473,8.8453202 L10.8768473,14.2837438 L12.1536946,14.2837438 C12.5320197,14.2837438 12.7684729,13.9054187 12.7684729,13.5743842 L12.7684729,4.82561576 L9.50541872,1.23152709 L9.17438424,1.23152709 L9.17438424,4.25812808 C9.17438424,4.49458128 8.93793103,4.73103448 8.70147783,4.73103448 L3.35763547,4.73103448 C3.07389163,4.73103448 2.83743842,4.49458128 2.83743842,4.25812808 L2.83743842,1.23152709 L1.56059113,1.23152709 C1.18226601,1.23152709 0.945812808,1.60985222 0.945812808,1.9408867 L0.945812808,13.5743842 C0.945812808,13.9054187 1.18226601,14.2837438 1.56059113,14.2837438 L2.83743842,14.2837438 Z M8.22857143,1.23152709 L3.78325123,1.23152709 L3.78325123,3.78522167 L8.22857143,3.78522167 L8.22857143,1.23152709 Z M9.93103448,14.2837438 L9.93103448,9.3182266 L3.78325123,9.3182266 L3.78325123,14.2837438 L9.93103448,14.2837438 Z" id="Combined-Shape"></path>
                                    </g>
                                </g>
                            </g>
                        </g>
                    </g>
                </g>
            </g>
        </g>
    </g>
</svg>