<svg xmlns="http://www.w3.org/2000/svg" width="28" height="28" viewBox="0 0 28 28">
    <g fill="none" fill-rule="evenodd">
        <path fill="#A6A6A6" fill-rule="nonzero" d="M19.153 17.094h-1.084l-.385-.37a8.88 8.88 0 0 0 2.155-5.805A8.92 8.92 0 0 0 10.919 2 8.92 8.92 0 0 0 2 10.92a8.92 8.92 0 0 0 8.92 8.919c2.209 0 4.24-.81 5.804-2.155l.37.385v1.084L23.955 26 26 23.955l-6.847-6.86zm-8.234 0a6.167 6.167 0 0 1-6.175-6.175 6.167 6.167 0 0 1 6.175-6.175 6.167 6.167 0 0 1 6.175 6.175 6.167 6.167 0 0 1-6.175 6.175z"/>
        <path fill="#FFF" fill-opacity=".01" d="M0 0h28v28H0z" opacity=".497"/>
    </g>
</svg>
