<svg xmlns="http://www.w3.org/2000/svg" width="44" height="44" viewBox="0 0 44 44">
    <g fill="none" fill-rule="evenodd">
        <rect width="44" height="44" fill="#FFF" rx="8" transform="matrix(-1 0 0 1 44 0)"/>
        <path fill="#FFF" fill-opacity=".01" d="M42 2H2v40h40z" opacity=".5"/>
        <path fill="#E34160" fill-rule="nonzero" d="M11 19v14h2V19h-2zm0-2h2a2 2 0 0 1 2 2v14a2 2 0 0 1-2 2h-2a2 2 0 0 1-2-2V19a2 2 0 0 1 2-2zm10-6v22h2V11h-2zm0-2h2a2 2 0 0 1 2 2v22a2 2 0 0 1-2 2h-2a2 2 0 0 1-2-2V11a2 2 0 0 1 2-2zm10 17v7h2v-7h-2zm0-2h2a2 2 0 0 1 2 2v7a2 2 0 0 1-2 2h-2a2 2 0 0 1-2-2v-7a2 2 0 0 1 2-2z"/>
    </g>
</svg>
