<?xml version="1.0" encoding="UTF-8"?>
<svg width="28px" height="28px" viewBox="0 0 28 28" version="1.1" xmlns="http://www.w3.org/2000/svg" xmlns:xlink="http://www.w3.org/1999/xlink">
    <!-- Generator: sketchtool 52.6 (67491) - http://www.bohemiancoding.com/sketch -->
    <title>55710F51-061A-4DA7-A712-14C5F48EC7C4</title>
    <desc>Created with sketchtool.</desc>
    <g id="page" stroke="none" stroke-width="1" fill="none" fill-rule="evenodd">
        <g id="SPC_MyPara_Basic" transform="translate(-1094.000000, -14.000000)">
            <g id="body" transform="translate(240.000000, 0.000000)">
                <g id="top">
                    <g id="btns" transform="translate(748.000000, 0.000000)">
                        <g id="btn" transform="translate(96.000000, 0.000000)">
                            <g id="IC/Top/28px/ic_setting_default" transform="translate(10.000000, 14.000000)">
                                <polygon id="Path" fill-opacity="0.01" fill="#FFFFFF" opacity="0.5" points="0 0 28 0 28 28 0 28"></polygon>
                                <path d="M22.4047768,15.627 L24.7908883,17.5245 C25.0057514,17.697 25.0622943,18.0075 24.9265913,18.2605 L22.6648742,22.2395 C22.5291712,22.4925 22.235148,22.596 21.9750505,22.4925 L19.1592127,21.3425 C18.5711663,21.791 17.9378855,22.182 17.2480618,22.4695 L16.8183356,25.517 C16.7844098,25.793 16.5469295,26 16.2642149,26 L11.7407807,26 C11.4580661,26 11.2205858,25.793 11.18666,25.517 L10.7569338,22.4695 C10.06711,22.182 9.43382926,21.8025 8.84578281,21.3425 L6.02994504,22.4925 C5.78115616,22.5845 5.47582435,22.4925 5.34012133,22.2395 L3.07840424,18.2605 C2.94270121,18.0075 2.99924414,17.697 3.21410726,17.5245 L5.60021879,15.627 C5.55498445,15.259 5.52105869,14.8795 5.52105869,14.5 C5.52105869,14.1205 5.55498445,13.741 5.60021879,13.373 L3.21410726,11.4755 C2.99924414,11.303 2.93139263,10.9925 3.07840424,10.7395 L5.34012133,6.7605 C5.47582435,6.5075 5.76984757,6.404 6.02994504,6.5075 L8.84578281,7.6575 C9.43382926,7.209 10.06711,6.818 10.7569338,6.5305 L11.18666,3.483 C11.2205858,3.207 11.4580661,3 11.7407807,3 L16.2642149,3 C16.5469295,3 16.7844098,3.207 16.8183356,3.483 L17.2480618,6.5305 C17.9378855,6.818 18.5711663,7.1975 19.1592127,7.6575 L21.9750505,6.5075 C22.2238394,6.4155 22.5291712,6.5075 22.6648742,6.7605 L24.9265913,10.7395 C25.0622943,10.9925 25.0057514,11.303 24.7908883,11.4755 L22.4047768,13.373 C22.4500111,13.741 22.4839369,14.109 22.4839369,14.5 C22.4839369,14.891 22.4500111,15.259 22.4047768,15.627 Z M14,18.5 C16.209139,18.5 18,16.709139 18,14.5 C18,12.290861 16.209139,10.5 14,10.5 C11.790861,10.5 10,12.290861 10,14.5 C10,16.709139 11.790861,18.5 14,18.5 Z" id="Combined-Shape" fill="#A5A5A5" fill-rule="nonzero"></path>
                            </g>
                        </g>
                    </g>
                </g>
            </g>
        </g>
    </g>
</svg>