<?xml version="1.0" encoding="UTF-8"?>
<svg width="28px" height="28px" viewBox="0 0 28 28" version="1.1" xmlns="http://www.w3.org/2000/svg" xmlns:xlink="http://www.w3.org/1999/xlink">
    <!-- Generator: sketchtool 52.6 (67491) - http://www.bohemiancoding.com/sketch -->
    <title>12B448B6-C270-45B5-A773-B72991FE402E</title>
    <desc>Created with sketchtool.</desc>
    <g id="page" stroke="none" stroke-width="1" fill="none" fill-rule="evenodd">
        <g id="SPC_MyPara_Basic" transform="translate(-998.000000, -14.000000)">
            <g id="body" transform="translate(240.000000, 0.000000)">
                <g id="top">
                    <g id="btns" transform="translate(748.000000, 0.000000)">
                        <g id="btn">
                            <g id="IC/Top/28px/ic_top_search_default" transform="translate(10.000000, 14.000000)">
                                <polygon id="Path" fill-opacity="0.01" fill="#FFFFFF" opacity="0.5" points="0 0 28 0 28 28 0 28"></polygon>
                                <path d="M19.1526587,17.0943396 L18.0686106,17.0943396 L17.6843911,16.7238422 C19.0291595,15.1595197 19.838765,13.1286449 19.838765,10.9193825 C19.838765,5.99313894 15.8456261,2 10.9193825,2 C5.99313894,2 2,5.99313894 2,10.9193825 C2,15.8456261 5.99313894,19.838765 10.9193825,19.838765 C13.1286449,19.838765 15.1595197,19.0291595 16.7238422,17.6843911 L17.0943396,18.0686106 L17.0943396,19.1526587 L23.9554031,26 L26,23.9554031 L19.1526587,17.0943396 Z M10.9193825,17.0943396 C7.5025729,17.0943396 4.74442539,14.3361921 4.74442539,10.9193825 C4.74442539,7.5025729 7.5025729,4.74442539 10.9193825,4.74442539 C14.3361921,4.74442539 17.0943396,7.5025729 17.0943396,10.9193825 C17.0943396,14.3361921 14.3361921,17.0943396 10.9193825,17.0943396 Z" id="Shape" fill="#A5A5A5" fill-rule="nonzero"></path>
                            </g>
                        </g>
                    </g>
                </g>
            </g>
        </g>
    </g>
</svg>