<?xml version="1.0" encoding="UTF-8"?>
<svg width="39px" height="55px" viewBox="0 0 39 55" version="1.1" xmlns="http://www.w3.org/2000/svg" xmlns:xlink="http://www.w3.org/1999/xlink">
    <!-- Generator: Sketch 58 (84663) - https://sketch.com -->
    <title>Group</title>
    <desc>Created with Sketch.</desc>
    <g id="Page-1" stroke="none" stroke-width="1" fill="none" fill-rule="evenodd">
        <g id="Apple-TV" transform="translate(-58.000000, -419.000000)">
            <g id="Group-247" transform="translate(58.000000, 380.000000)">
                <g id="Group-257" transform="translate(0.000000, 24.000000)">
                    <g id="Group" transform="translate(0.000000, 15.555556)">
                        <path d="M23.5656519,44.9195842 C24.9732733,41.9376895 24.8368202,44.4660985 28.304165,46.6017448 C28.8614682,46.9454121 33.2724939,48.1392035 36.8662373,48.4260235 C40.4585445,48.7141355 38.6473093,53.9569988 32.7668993,54.3872289 C26.8864893,54.8187509 26.8692531,52.7024842 24.2924442,51.6249712 C20.9242074,50.2167107 23.5656519,44.9195842 23.5656519,44.9195842" id="Fill-251" fill="#FFD6D6"></path>
                        <path d="M24.145863,-1.42108547e-14 C7.3819161,17.4293234 -7.49707159,35.1224375 4.14269998,44.788386 C10.6568097,50.1981462 24.0135591,52.3030049 25.4926871,50.9211788 C29.1630059,47.4946329 25.4822812,44.6366722 25.4822812,44.6366722 C25.4822812,44.6366722 15.5148906,39.0259937 15.5148906,35.5393089 C15.5148906,34.097344 27.3880522,19.0216353 27.4162969,16.3454579 C27.5352217,4.95461867 24.145863,-1.42108547e-14 24.145863,-1.42108547e-14" id="Fill-253" fill="#D0D4F6"></path>
                    </g>
                </g>
            </g>
        </g>
    </g>
</svg>