<?xml version="1.0" encoding="iso-8859-1"?>
<!-- Generator: Adobe Illustrator 16.0.0, SVG Export Plug-In . SVG Version: 6.00 Build 0)  -->
<!DOCTYPE svg PUBLIC "-//W3C//DTD SVG 1.1//EN" "http://www.w3.org/Graphics/SVG/1.1/DTD/svg11.dtd">
<svg version="1.1" id="&#xB808;&#xC774;&#xC5B4;_3" xmlns="http://www.w3.org/2000/svg" xmlns:xlink="http://www.w3.org/1999/xlink"
	 x="0px" y="0px" width="50px" height="50px" viewBox="0 0 50 50" style="enable-background:new 0 0 50 50;" xml:space="preserve">
<path style="fill:none;stroke:#FFFFFF;stroke-width:1.2236;stroke-miterlimit:10;" d="M42.166,39.225
	c0,1.352-1.096,2.447-2.447,2.447h-28.45c-1.352,0-2.447-1.096-2.447-2.447V10.775c0-1.352,1.095-2.447,2.447-2.447h28.45
	c1.352,0,2.447,1.096,2.447,2.447V39.225z"/>
<line style="fill:none;stroke:#FFFFFF;stroke-width:1.2236;stroke-linecap:round;stroke-miterlimit:10;" x1="18.611" y1="41.672" x2="18.611" y2="48.708"/>
<line style="fill:none;stroke:#FFFFFF;stroke-width:1.2236;stroke-linecap:round;stroke-miterlimit:10;" x1="31.969" y1="41.672" x2="31.969" y2="48.708"/>
<line style="fill:none;stroke:#FFFFFF;stroke-width:1.2236;stroke-linecap:round;stroke-miterlimit:10;" x1="18.611" y1="1.292" x2="18.611" y2="8.328"/>
<line style="fill:none;stroke:#FFFFFF;stroke-width:1.2236;stroke-linecap:round;stroke-miterlimit:10;" x1="31.969" y1="1.292" x2="31.969" y2="8.328"/>
<line style="fill:none;stroke:#FFFFFF;stroke-width:1.2236;stroke-linecap:round;stroke-miterlimit:10;" x1="41.964" y1="31.678" x2="49" y2="31.678"/>
<line style="fill:none;stroke:#FFFFFF;stroke-width:1.2236;stroke-linecap:round;stroke-miterlimit:10;" x1="41.964" y1="18.321" x2="49" y2="18.321"/>
<line style="fill:none;stroke:#FFFFFF;stroke-width:1.2236;stroke-linecap:round;stroke-miterlimit:10;" x1="1.584" y1="31.678" x2="8.62" y2="31.678"/>
<line style="fill:none;stroke:#FFFFFF;stroke-width:1.2236;stroke-linecap:round;stroke-miterlimit:10;" x1="1.584" y1="18.321" x2="8.62" y2="18.321"/>
<rect x="18.611" y="18.321" style="fill:none;stroke:#FFFFFF;stroke-width:1.2236;stroke-linecap:round;stroke-miterlimit:10;" width="13.358" height="13.356"/>
</svg>
