<?xml version="1.0" encoding="UTF-8"?>
<svg width="27px" height="26px" viewBox="0 0 27 26" version="1.1" xmlns="http://www.w3.org/2000/svg" xmlns:xlink="http://www.w3.org/1999/xlink">
    <!-- Generator: Sketch 58 (84663) - https://sketch.com -->
    <title>Fill 243</title>
    <desc>Created with Sketch.</desc>
    <defs>
        <path d="M31.1493618,4.34608427 C33.9816397,11.1131512 39.9383819,21.3798847 39.9383819,21.3798847 L39.9383819,21.3798847 C37.2494407,18.3362008 35.1503851,14.2466067 26.8850953,12.5665958 L26.8850953,12.5665958 L26.8878518,12.5651709 C25.6929199,11.1060265 26.802401,7.66050788 26.802401,7.66050788 L26.802401,7.66050788 C26.802401,7.66050788 20.9765915,10.3892788 15.2913621,8.88881104 L15.2913621,8.88881104 C15.2913621,8.88881104 15.0046887,11.8897466 11.6142247,17.4285104 L11.6142247,17.4285104 L4.08353544,22.5540399 C-4.31819986,29.0076189 2.84863472,61.5491029 2.84863472,61.5491029 L2.84863472,61.5491029 C5.45901638,75.5791179 2.97818903,107.854137 3.73621961,123.391745 L3.73621961,123.391745 C4.66377339,142.426169 46.3816418,138.679987 47.3105738,107.489351 L47.3105738,107.489351 C47.6165425,97.1798692 37.2411712,37.1255343 37.2411712,37.1255343 L37.2411712,37.1255343 C37.2411712,37.1255343 41.5054378,41.984599 53.1667046,42.5246534 L53.1667046,42.5246534 C64.8693185,43.0661328 36.6140732,2.64184926 35.4136284,0.38758522 L35.4136284,0.38758522 C35.2702917,0.116845544 35.0359914,0 34.749318,0 L34.749318,0 C33.3159511,0 30.558098,2.93253817 31.1493618,4.34608427" id="path-1"></path>
        <linearGradient x1="57.8594196%" y1="101.114347%" x2="36.4672011%" y2="-19.385072%" id="linearGradient-3">
            <stop stop-color="#BCC0E6" offset="0%"></stop>
            <stop stop-color="#FFFFFF" offset="100%"></stop>
        </linearGradient>
        <linearGradient x1="50%" y1="0%" x2="50%" y2="100%" id="linearGradient-4">
            <stop stop-color="#FFFFFF" stop-opacity="0.5" offset="0%"></stop>
            <stop stop-color="#000000" stop-opacity="0.5" offset="100%"></stop>
        </linearGradient>
        <path d="M47.3274455,16.0457924 C45.902471,17.2603042 44.6039994,18.3092625 43.2895332,17.4679247 C40.7565685,15.8490279 41.42398,14.281697 40.1502273,12.8867046 C38.8779287,11.4903553 38.7339772,11.6464099 39.7038322,10.2310625 C40.6736873,8.81707223 41.2494933,8.94598689 43.2095602,8.96227085 C44.9224376,8.97719781 47.6080782,8.37740538 48.6797171,8.09107912 L49.3471286,8.78179032 C49.3471286,8.78179032 53.0317054,5.14775379 49.5157991,2.43240386 C45.9998928,-0.282946068 39.5497024,-0.979085255 35.8331364,1.65484488 C35.8331364,1.65484488 31.2775803,0.813507076 28.6108425,7.20631743 C25.9441046,13.5991278 32.760717,24.8092756 34.6248162,25.7266052 C36.0759636,26.4403853 37.3031865,25.809382 37.9575115,23.2066628 C38.6118365,20.6039435 38.8430314,19.1980952 37.2421162,18.3364024 C35.639747,17.4733527 34.8938165,14.7444328 36.6125101,14.1351414 C38.3326579,13.527207 38.9986153,13.7538254 39.9684703,15.1678157 C40.9383254,16.581806 42.5145216,23.1442409 43.8493446,24.2203391 C45.1827136,25.2950803 48.0152138,23.2975815 50.2791783,23.2012348 C51.1501575,23.1632389 51.9193529,23.2134477 51.9193529,23.2134477 C56.5796009,22.6068703 55.377097,12.0711498 52.1156504,12.8867046 C49.277334,13.5964138 48.781501,14.8068546 47.3274455,16.0457924 Z" id="path-5"></path>
    </defs>
    <g id="Page-1" stroke="none" stroke-width="1" fill="none" fill-rule="evenodd">
        <g id="Apple-TV" transform="translate(-141.000000, -380.000000)">
            <g id="Group-250" transform="translate(133.000000, 398.000000)">
                <mask id="mask-2" fill="white">
                    <use xlink:href="#path-1"></use>
                </mask>
                <g id="Clip-249"></g>
                <path d="M31.1493618,4.34608427 C33.9816397,11.1131512 39.9383819,21.3798847 39.9383819,21.3798847 L39.9383819,21.3798847 C37.2494407,18.3362008 35.1503851,14.2466067 26.8850953,12.5665958 L26.8850953,12.5665958 L26.8878518,12.5651709 C25.6929199,11.1060265 26.802401,7.66050788 26.802401,7.66050788 L26.802401,7.66050788 C26.802401,7.66050788 20.9765915,10.3892788 15.2913621,8.88881104 L15.2913621,8.88881104 C15.2913621,8.88881104 15.0046887,11.8897466 11.6142247,17.4285104 L11.6142247,17.4285104 L4.08353544,22.5540399 C-4.31819986,29.0076189 2.84863472,61.5491029 2.84863472,61.5491029 L2.84863472,61.5491029 C5.45901638,75.5791179 2.97818903,107.854137 3.73621961,123.391745 L3.73621961,123.391745 C4.66377339,142.426169 46.3816418,138.679987 47.3105738,107.489351 L47.3105738,107.489351 C47.6165425,97.1798692 37.2411712,37.1255343 37.2411712,37.1255343 L37.2411712,37.1255343 C37.2411712,37.1255343 41.5054378,41.984599 53.1667046,42.5246534 L53.1667046,42.5246534 C64.8693185,43.0661328 36.6140732,2.64184926 35.4136284,0.38758522 L35.4136284,0.38758522 C35.2702917,0.116845544 35.0359914,0 34.749318,0 L34.749318,0 C33.3159511,0 30.558098,2.93253817 31.1493618,4.34608427" id="Fill-248" fill="url(#linearGradient-3)" mask="url(#mask-2)"></path>
            </g>
            <path d="M160.469643,406.323086 C162.161441,402.112666 163.871182,404.885129 164.779882,399.709667 C165.688583,394.534204 163.889125,387.725706 157.406464,382.792612 C150.922522,377.858041 146.791716,383.772433 146.077829,392.481457 C145.366505,401.189004 149.765178,407.597001 149.765178,407.597001 L155.856932,410 L160.469643,406.323086 Z" id="Fill-232" fill="#FFD6D6"></path>
            <g id="Group-247" transform="translate(113.000000, 380.000000)">
                <g id="Group-257" transform="translate(0.000000, 24.000000)" fill="#1C2340">
                    <path d="M49.0367103,0 C49.0367103,0 42.9047962,2.65259112 36.9237144,1.1940123 C36.9237144,1.1940123 36.6220497,4.11116995 33.0542851,9.49530661 C33.0542851,9.49530661 32.7453689,9.69061488 32.2580645,9.99673637 C41.7634016,16.3768067 46.3434831,24.5077257 48.7568003,23.1918189 C51.3209498,21.791417 49.1237289,4.76912336 49.1237289,4.76912336 L49.1266295,4.76496787 C47.8692101,3.34655883 49.0367103,0 49.0367103,0" id="Fill-255"></path>
                </g>
                <g id="Fill-243">
                    <use fill="#1C2340" xlink:href="#path-5"></use>
                    <use fill="url(#linearGradient-4)" xlink:href="#path-5"></use>
                </g>
                <path d="M52.9486303,21.9979768 C52.4544318,21.4118343 50.5627963,23.1278534 48.7577153,19.0309147 C48.3221505,18.0403794 44.6212459,19.2066059 44.0335126,18.3130038 C43.4457794,17.4209162 50.7554499,16.7136073 52.870452,15.8533259 C54.9868501,14.9930445 52.7099073,11.7397267 53.4442249,11.0702824 C54.1785424,10.4008381 55.9263857,14.6870993 56.1916335,16.5682076 C56.4554853,18.4493159 56.9845848,20.2652973 56.9845848,20.2652973 C56.9845848,20.2652973 57.4731991,27.3550461 52.9486303,21.9979768" id="Fill-245" fill="#FFD6D6"></path>
            </g>
        </g>
    </g>
</svg>