<?xml version="1.0" encoding="UTF-8"?>
<svg width="152px" height="88px" viewBox="0 0 152 88" version="1.1" xmlns="http://www.w3.org/2000/svg" xmlns:xlink="http://www.w3.org/1999/xlink">
    <!-- Generator: Sketch 58 (84663) - https://sketch.com -->
    <title>그래프 라인</title>
    <desc>Created with Sketch.</desc>
    <defs>
        <path d="M16.5099324,4.14852028 C13.0860305,6.5355798 9.54513873,9.00279447 6.46148218,7.21787609 L6.46148218,7.21787609 C6.44100897,7.20614607 6.42053575,7.19343854 6.40006253,7.18170852 L6.40006253,7.18170852 L1.8286855,4.55320604 C1.36950047,4.28928054 0.998057811,4.50824096 1,5.04097947 L1,5.04097947 C1.00195747,5.57371798 1.37340014,6.2178917 1.83258516,6.4827947 L1.83258516,6.4827947 C1.83356008,6.4837722 1.83453499,6.4847497 1.83550991,6.4847497 L1.83550991,6.4847497 L6.38933846,9.10249966 C6.41956083,9.1210722 6.4497832,9.13866723 6.47903065,9.15626226 L6.47903065,9.15626226 C10.2821746,11.3566189 13.9078839,8.83075415 17.7432,6.15924159 L17.7432,6.15924159 C21.5482938,3.50727906 25.4830512,0.765386369 29.3583389,2.94228299 L29.3583389,2.94228299 C29.3924609,2.96085553 29.4275578,2.98040556 29.4626548,3.0009331 L29.4626548,3.0009331 C33.2307017,5.18173973 36.6643528,10.6899627 40.2978615,16.5168512 L40.2978615,16.5168512 C44.0161878,22.4815675 47.861253,28.6476492 52.2883426,31.2096815 L52.2883426,31.2096815 C56.7446797,33.7902864 59.968724,27.8460977 63.3828768,21.5529407 L63.3828768,21.5529407 C66.7385347,15.369264 70.5407036,8.35959825 75.2300454,11.0731434 L75.2300454,11.0731434 C79.9018387,13.777891 83.4037338,22.5255551 86.7925388,30.9868111 L86.7925388,30.9868111 C90.225215,39.5585249 93.4677827,47.6590827 98.1171529,50.3501453 L98.1171529,50.3501453 C98.1386011,50.3618753 98.1600492,50.3745828 98.1814973,50.3872904 L98.1814973,50.3872904 C102.741175,52.9698503 106.53847,54.0861574 110.210975,55.1653194 L110.210975,55.1653194 C113.753817,56.2063589 117.1007,57.1897257 121.138799,59.3920374 L121.138799,59.3920374 C124.986789,61.4868239 128.089944,65.6871493 131.364684,70.1250078 L131.364684,70.1250078 C134.987468,75.0349996 138.733092,80.1111667 143.915741,83.1101423 L143.915741,83.1101423 C143.962537,83.1375124 144.010308,83.1648825 144.057104,83.1922525 L144.057104,83.1922525 L152.166448,87.8862164 C152.627582,88.1520969 153,87.936069 153,87.404308 L153,87.404308 C153,86.8715695 152.627582,86.2244632 152.166448,85.9576052 L152.166448,85.9576052 L144.050279,81.2587538 C144.008358,81.2352938 143.968386,81.2128113 143.92744,81.1883737 L143.92744,81.1883737 C139.241023,78.4758061 135.70793,73.689957 132.292803,69.0595307 L132.292803,69.0595307 C128.942994,64.5219671 125.476196,59.8240932 121.090053,57.4360562 L121.090053,57.4360562 C116.875495,55.1389269 113.284882,54.0832249 109.81321,53.0627129 L109.81321,53.0627129 C106.233321,52.0109209 102.531569,50.9229614 98.1639489,48.4489042 L98.1639489,48.4489042 C98.1493251,48.4401067 98.1347014,48.4322867 98.1191028,48.4234891 L98.1191028,48.4234891 C94.4085758,46.2749401 91.4009626,38.7647933 88.2178647,30.8157483 L88.2178647,30.8157483 C84.5911805,21.7591936 80.8416569,12.3937484 75.2300454,9.14550974 L75.2300454,9.14550974 C69.4907201,5.82298095 65.6222568,12.9548345 61.8805326,19.8520875 L61.8805326,19.8520875 C58.8397723,25.4580606 55.6946961,31.2546466 52.2883426,29.2820479 L52.2883426,29.2820479 C48.4920231,27.0856012 44.8877619,21.3036778 41.4014654,15.7123672 L41.4014654,15.7123672 C37.6948381,9.76622342 33.8624467,3.61969178 29.4607049,1.07232195 L29.4607049,1.07232195 C29.4187836,1.0478844 29.3758873,1.02344686 29.3329911,0.999009311 L29.3329911,0.999009311 C28.0792502,0.294230476 26.8567066,-0.000975082802 25.6595109,0 L25.6595109,0 C22.4656889,0 19.4512513,2.1006539 16.5099324,4.14852028" id="path-1"></path>
        <linearGradient x1="61.0764847%" y1="39.5778458%" x2="44.7149279%" y2="56.2221841%" id="linearGradient-3">
            <stop stop-color="#FF7A01" offset="0%"></stop>
            <stop stop-color="#7ACB21" offset="100%"></stop>
        </linearGradient>
    </defs>
    <g id="Page-1" stroke="none" stroke-width="1" fill="none" fill-rule="evenodd">
        <g id="Apple-TV" transform="translate(-247.000000, -342.000000)">
            <g id="그래프-라인" transform="translate(246.000000, 342.000000)">
                <mask id="mask-2" fill="white">
                    <use xlink:href="#path-1"></use>
                </mask>
                <g id="Clip-210"></g>
                <path d="M6.46173043,7.21795488 C6.44125725,7.20622487 6.42078407,7.19351736 6.40031089,7.18178735 L1.8289416,4.55328743 C1.36975735,4.28936219 0.998315319,4.50832239 1,5.04106038 C1.00221497,5.57379837 1.37365701,6.21797146 1.83284125,6.48287421 L6.38958684,9.10257661 C6.41980916,9.12114913 6.45003147,9.13874415 6.47927888,9.15633916 C10.2824163,11.3566937 13.9081196,8.83083136 17.7434292,6.15932141 C21.5485165,3.50736147 25.4832673,0.765471452 29.3585483,2.94236595 C29.3926703,2.96093847 29.4277672,2.98048849 29.4628641,3.00101601 C33.2309046,5.18182051 36.6645499,10.6900381 40.2980524,16.5169209 C44.0163724,22.4816314 47.8614312,28.6477071 52.2885133,31.2097369 C56.7448428,33.7903393 59.9688816,27.8461563 63.3830286,21.5530056 C66.7386808,15.3693349 70.5408433,8.35967593 75.2301772,11.0732184 C79.9019625,13.7779634 83.4038517,22.5256189 86.792651,30.9868667 C90.2253213,39.5585721 93.4678835,47.659122 98.1172459,50.350182 C98.138694,50.361912 98.1601421,50.3746195 98.1815902,50.387327 C102.741261,52.9698844 106.538549,54.0861904 110.211048,55.1653514 C113.753883,56.2063899 117.100761,57.1897558 121.138853,59.3920653 C124.986836,61.4868497 128.089986,65.6871711 131.36472,70.1250252 C134.987499,75.0350122 138.733116,80.1111744 143.915756,83.1101471 C143.962552,83.1375171 144.010323,83.1648872 144.057119,83.1922572 L152.166449,87.8862165 C152.627583,88.1520967 153,87.9360691 153,87.4043086 C153,86.8715706 152.627583,86.224465 152.166449,85.9576072 L144.050294,81.2587604 C144.008373,81.2353004 143.968402,81.2128179 143.927455,81.1883804 C139.241046,78.4758154 135.70796,73.689971 132.292838,69.0595492 C128.943035,64.52199 125.476243,59.8241207 121.090107,57.436086 C116.875556,55.1389589 113.28495,54.0832579 109.813283,53.062747 C106.233401,52.010956 102.531654,50.9229975 98.1640418,48.4489428 C98.1494181,48.4401453 98.1347943,48.4323253 98.1191957,48.4235277 C94.408675,46.2749808 91.401067,38.7648414 88.2179745,30.8158041 C84.5912963,21.7592582 80.8417791,12.3938221 75.2301772,9.14558665 C69.4908615,5.8230611 65.6224049,12.9549077 61.8806869,19.852154 C58.8399318,25.4581216 55.6948609,31.254702 52.2885133,29.2821052 C48.4922002,27.0856606 44.8879451,21.3037428 41.4016545,15.7124377 C37.6950334,9.76629972 33.8626486,3.61977407 29.4609142,1.07240673 C29.418993,1.04796921 29.3760968,1.02353169 29.3332006,0.999094167 C28.0794618,0.294316019 26.8569203,-0.000889252131 25.6597266,0 C22.46591,0 19.4514776,2.10073768 16.5101636,4.14860206 C13.0862675,6.53565925 9.54538176,9.00287152 6.46173043,7.21795488 Z" id="Fill-209" fill="url(#linearGradient-3)" mask="url(#mask-2)"></path>
            </g>
        </g>
    </g>
</svg>