<?xml version="1.0" encoding="UTF-8"?>
<svg width="232px" height="182px" viewBox="0 0 232 182" version="1.1" xmlns="http://www.w3.org/2000/svg" xmlns:xlink="http://www.w3.org/1999/xlink">
    <!-- Generator: Sketch 58 (84663) - https://sketch.com -->
    <title>Untitled 3</title>
    <desc>Created with Sketch.</desc>
    <g id="Page-1" stroke="none" stroke-width="1" fill="none" fill-rule="evenodd">
        <g id="Group" transform="translate(0.000000, 19.999979)" fill-rule="nonzero">
            <g transform="translate(0.000000, 81.000021)" fill="#B7B8BC" id="Path">
                <path d="M34.1297717,32.0305263 C27.6794457,29.0207368 22.3824891,26.5893158 22.3824891,21.6696316 C22.3824891,17.9095263 25.396913,15.174 31.3531413,15.174 C33.5445435,15.174 35.3358261,15.4326316 37.186913,15.7708421 C38.1551739,15.9371053 39.1889348,16.0792105 40.0418587,16.0792105 C45.243413,16.0792105 48.1795217,12.9841579 50.1317065,7.10952632 L50.9390652,4.71078947 C50.1089239,4.37257895 41.609587,0.648 30.5272717,0.648 C12.8963804,0.648 3.58968478,11.9325789 3.59538043,23.6392105 C3.59538043,29.5465263 5.4478913,33.8238947 8.34840217,37.1960526 C12.08475,41.5316842 17.4130326,44.3695263 22.3981522,46.7952632 C29.6615326,50.3521579 36.2172283,52.9811053 36.2172283,58.2532105 C36.2215,62.9298947 31.3773478,65.5915263 24.9013913,65.5915263 C16.0289891,65.5915263 8.27578261,60.5297368 7.28473913,59.9201053 L0,73.5465789 C1.29576087,74.277 10.6779239,80.2212632 26.118837,80.2212632 C42.5721522,80.2098947 55.0313913,70.7968421 55.0313913,56.3106316 C55.0299674,41.8968947 43.4820326,36.5537368 34.1297717,32.0305263 Z"></path>
                <path d="M98.4849457,38.7606316 L128.331587,2.23957895 L107.065446,2.23957895 L83.2604674,33.7556842 L82.9044891,33.7556842 L82.9044891,2.23957895 L65.3775435,2.23957895 L65.3818152,79.6031053 L66.4241196,79.6031053 C74.0021848,79.6031053 83.0226739,76.1044737 83.0226739,63.4698947 L83.0226739,45.7081579 L83.3786522,45.7081579 L107.644978,78.6396316 L129.950576,78.6396316 L98.4849457,38.7606316 Z"></path>
            </g>
            <g transform="translate(111.000000, 0.000021)" fill="#A8A8AC" id="Path">
                <path d="M18.2425915,0.368 C12.0773239,1.52578462 2.93611268,7.09390769 2.96598592,16.9407385 C2.99016901,25.8817231 10.3375634,31.3012308 10.3603239,43.0177846 C10.3958873,51.8328 5.51374648,57.7675077 0.233295775,61.0582769 C2.36709859,60.8700308 4.70432394,60.7483077 7.27626761,60.7426462 C12.6705211,60.7284923 15.9224366,61.2408615 16.1244366,61.2734154 L43.7827887,27.5037538 C36.1010986,16.0617846 27.1305915,7.18307692 18.2425915,0.368 Z"></path>
                <path d="M41.4754366,91.5612308 C44.9620704,86.1686154 45.3987887,77.5744 45.6946761,68.8202462 C46.0204366,60.6548923 47.733169,54.5107077 58.7122958,54.4724923 C61.144831,54.464 63.4621408,54.7966154 67.6586197,54.7852923 C83.7418028,54.7145231 94.2429577,49.2044308 100.775239,45.5881231 C87.4290141,37.1212923 67.9488169,28.4761231 43.7813662,27.5037538 C42.2066197,31.924 29.9585915,65.8083077 29.0325211,68.5428308 C29.1719296,68.7070154 31.3171127,71.0990154 33.9957465,75.7641231 C37.9475493,82.1715692 40.0685493,87.5995692 41.4754366,91.5612308 Z"></path>
            </g>
        </g>
        <path d="M93.8618783,83.9999794 C92.4696211,84.0084439 91.7770334,83.0808881 91.5886608,81.4715147 C91.411619,79.873505 84.5239826,16.6818095 83.4985561,7.11789897 C83.349841,5.72159361 83.0042553,3.15767582 83,2.2443245 C82.9971736,0.771314668 83.9531996,0.00284955948 85.0806022,-2.05809979e-05 C88.3438377,-0.0127754243 106.127338,4.16477704 125,17.4303882 C119.562691,18.9687389 109.726245,24.640608 109.771568,36.384914 C109.806976,46.7797895 117.228571,52.5013744 117.266812,62.9303409 C117.323465,79.8905505 97.8871019,83.9928189 93.8618783,83.9999794 Z" id="Path" fill="#B7B8BC" fill-rule="nonzero"></path>
        <path d="M154,116.029006 C154.298457,116.812773 154.579777,117.472042 154.862525,117.933247 C155.2995,118.668912 155.869281,119.002791 156.569012,118.999979 C157.011699,118.994303 157.554347,118.848584 158.154117,118.579784 C159.620695,117.912026 217.596968,91.1734297 226.340748,87.1767876 C227.608832,86.5741081 230.010765,85.5102232 230.803317,85.0504326 C231.62443,84.5878124 232,83.9101517 232,83.2225878 C231.997144,82.8377783 231.882902,82.4487247 231.662987,82.0950395 C230.57055,80.3435907 224.961279,74.4455374 215.583457,67.9999794 C208.136321,72.0616995 196.509365,78.3431476 179.21316,78.4124699 C174.97479,78.4167141 174.015159,78.1351807 171.120558,78.1464987 C162.676663,78.1762082 160.568902,81.7540871 160.260449,89.0866874 C160.20904,90.4717184 160.184764,92.3363464 160.103367,94.3806465 C159.836327,100.936554 159.055199,109.978161 154,116.029006 Z" id="Path" fill="#B7B8BC" fill-rule="nonzero"></path>
    </g>
</svg>