<?xml version="1.0" encoding="UTF-8"?>
<svg width="528px" height="305px" viewBox="0 0 528 305" version="1.1" xmlns="http://www.w3.org/2000/svg" xmlns:xlink="http://www.w3.org/1999/xlink">
    <!-- Generator: Sketch 58 (84663) - https://sketch.com -->
    <title>Group 16</title>
    <desc>Created with Sketch.</desc>
    <defs>
        <path d="M236.835851,5.84866891 L10.0904066,136.950758 C3.31038265,140.871685 0,146.115712 0,151.608709 L0,151.608709 L0,151.618668 C0,151.911741 0.00995572353,152.206238 0.029863512,152.500734 L0.029863512,152.500734 C0.4450831,158.86157 5.26418989,165.474223 14.2994819,170.68695 L14.2994819,170.68695 L232.756176,296.752725 C250.046091,306.731456 276.196393,307.805585 291.165628,299.151376 L291.165628,299.151376 L517.90965,168.049287 C525.056546,163.917802 528.352707,158.313836 527.970193,152.500734 L527.970193,152.500734 C527.554974,146.138475 522.735867,139.525823 513.700575,134.313095 L513.700575,134.313095 L295.245302,8.24732027 C285.796213,2.79415853 273.699387,0 262.229657,0 L262.229657,0 C252.71089,0 243.624407,1.9234737 236.835851,5.84866891" id="path-1"></path>
        <linearGradient x1="3.46458281e-07%" y1="50.0000395%" x2="100.000145%" y2="50.0000395%" id="linearGradient-3">
            <stop stop-color="#E6EEF8" offset="0%"></stop>
            <stop stop-color="#F2F2F9" offset="100%"></stop>
        </linearGradient>
    </defs>
    <g id="Page-1" stroke="none" stroke-width="1" fill="none" fill-rule="evenodd">
        <g id="Apple-TV" transform="translate(-11.000000, -414.000000)">
            <g id="Group-16" transform="translate(11.000000, 414.000000)">
                <mask id="mask-2" fill="white">
                    <use xlink:href="#path-1"></use>
                </mask>
                <g id="Clip-15"></g>
                <path d="M236.835851,5.84866891 L10.0904066,136.950758 C3.31038265,140.871685 0,146.115712 0,151.608709 L0,151.608709 L0,151.618668 C0,151.911741 0.00995572353,152.206238 0.029863512,152.500734 L0.029863512,152.500734 C0.4450831,158.86157 5.26418989,165.474223 14.2994819,170.68695 L14.2994819,170.68695 L232.756176,296.752725 C250.046091,306.731456 276.196393,307.805585 291.165628,299.151376 L291.165628,299.151376 L517.90965,168.049287 C525.056546,163.917802 528.352707,158.313836 527.970193,152.500734 L527.970193,152.500734 C527.554974,146.138475 522.735867,139.525823 513.700575,134.313095 L513.700575,134.313095 L295.245302,8.24732027 C285.796213,2.79415853 273.699387,0 262.229657,0 L262.229657,0 C252.71089,0 243.624407,1.9234737 236.835851,5.84866891" id="Fill-14" fill="url(#linearGradient-3)" mask="url(#mask-2)"></path>
            </g>
        </g>
    </g>
</svg>