<?xml version="1.0" encoding="iso-8859-1"?>
<!-- Generator: Adobe Illustrator 16.0.0, SVG Export Plug-In . SVG Version: 6.00 Build 0)  -->
<!DOCTYPE svg PUBLIC "-//W3C//DTD SVG 1.1//EN" "http://www.w3.org/Graphics/SVG/1.1/DTD/svg11.dtd">
<svg version="1.1" id="&#xB808;&#xC774;&#xC5B4;_1" xmlns="http://www.w3.org/2000/svg" xmlns:xlink="http://www.w3.org/1999/xlink"
	 x="0px" y="0px" width="150px" height="150px" viewBox="0 0 150 150" style="enable-background:new 0 0 150 150;"
	 xml:space="preserve">
<circle style="fill:none;stroke:#FFFFFF;stroke-width:1.8131;stroke-miterlimit:10;" cx="74.81" cy="73.792" r="36.865"/>
<path style="fill:none;stroke:#FFFFFF;stroke-width:3.6499;stroke-miterlimit:10;" d="M125.789,84.478
	c0.458-2.456,0.742-4.97,0.839-7.532l21.195-15.224c-0.905-5.029-2.313-9.881-4.177-14.503L117.6,45.639
	c-1.437-2.091-3.022-4.069-4.739-5.923l4.224-25.748c-4.118-2.86-8.532-5.323-13.199-7.313l-19.55,17.316
	c-2.454-0.457-4.968-0.741-7.531-0.838L61.58,1.937c-5.029,0.905-9.881,2.313-14.503,4.178l-1.579,26.048
	c-2.091,1.435-4.069,3.02-5.924,4.738l-25.748-4.224c-2.86,4.118-5.323,8.532-7.313,13.199L23.83,65.425
	c-0.457,2.455-0.741,4.97-0.838,7.533L1.795,88.181c0.905,5.028,2.314,9.881,4.178,14.504l26.047,1.579
	c1.435,2.09,3.02,4.069,4.738,5.922l-4.224,25.749c4.118,2.861,8.532,5.322,13.199,7.312l19.549-17.314
	c2.455,0.456,4.97,0.741,7.533,0.837l15.223,21.197c5.029-0.907,9.881-2.313,14.504-4.178l1.578-26.049
	c2.091-1.435,4.068-3.021,5.923-4.737l25.75,4.224c2.858-4.118,5.323-8.531,7.312-13.198L125.789,84.478z"/>
<circle style="fill:none;stroke:#EFB78B;stroke-width:1.286;stroke-miterlimit:10;" cx="74.81" cy="73.665" r="24.68"/>
</svg>
