<?xml version="1.0" encoding="UTF-8"?>
<svg width="145px" height="143px" viewBox="0 0 145 143" version="1.1" xmlns="http://www.w3.org/2000/svg" xmlns:xlink="http://www.w3.org/1999/xlink">
    <!-- Generator: Sketch 58 (84663) - https://sketch.com -->
    <title>Shape</title>
    <desc>Created with Sketch.</desc>
    <g id="Page-1" stroke="none" stroke-width="1" fill="none" fill-rule="evenodd">
        <g id="Apple-TV" transform="translate(-71.000000, -48.000000)" fill="#1C2340" fill-rule="nonzero">
            <path d="M215.099792,127.714537 L215.099792,107.241061 L201.421166,107.241061 C199.843931,100.072531 196.911506,93.2671224 192.779816,87.186694 L203.318048,76.7089683 L188.838517,62.1658851 L178.300284,72.4759672 C171.393802,67.4930294 163.484893,64.0545355 155.116172,62.3963951 L155.116172,48 L134.545542,48 L134.545542,62.0820633 C126.255737,63.2275861 118.331737,66.2142549 111.361431,70.8204865 L102.930845,62.0820633 L88.0508603,76.3317702 L96.2917582,84.818728 C91.1790527,91.4408879 87.5825238,99.0932687 85.7535256,107.241061 L71,107.241061 L71,127.714537 L85.2476904,127.714537 C86.4682558,137.191011 90.0309021,146.219278 95.6173113,153.992673 L86.7441195,162.647274 L101.307957,177.31609 L110.244378,168.493845 C117.556933,173.497078 125.929698,176.759553 134.714154,178.028576 L134.714154,191 L155.284784,191 L155.284784,177.714244 C163.116852,176.170157 170.55232,173.061912 177.141078,168.577667 L187.826846,179.600234 L202.706831,165.350528 L191.852451,154.181272 C197.530712,146.410354 201.154371,137.345576 202.390684,127.819314 L215.099792,127.714537 Z M143.629499,154.705318 C124.458093,154.681997 108.93548,139.210966 108.958739,120.149636 C108.98205,101.088306 124.542416,85.6548104 143.713822,85.6779264 C162.885227,85.7010945 178.407856,101.172111 178.384616,120.233441 C178.390236,129.392165 174.727662,138.176159 168.206161,144.644487 C161.684661,151.112814 152.841072,154.733015 143.629499,154.705318 Z" id="Shape"></path>
        </g>
    </g>
</svg>