<?xml version="1.0" encoding="UTF-8"?>
<svg width="425px" height="420px" viewBox="0 0 425 420" version="1.1" xmlns="http://www.w3.org/2000/svg" xmlns:xlink="http://www.w3.org/1999/xlink">
    <!-- Generator: Sketch 58 (84663) - https://sketch.com -->
    <title>_ionicons_svg_ios-cog (1)</title>
    <desc>Created with Sketch.</desc>
    <defs>
        <filter x="-2.9%" y="-2.9%" width="105.8%" height="105.8%" filterUnits="objectBoundingBox" id="filter-1">
            <feOffset dx="0" dy="2" in="SourceAlpha" result="shadowOffsetOuter1"></feOffset>
            <feGaussianBlur stdDeviation="2" in="shadowOffsetOuter1" result="shadowBlurOuter1"></feGaussianBlur>
            <feColorMatrix values="0 0 0 0 0   0 0 0 0 0   0 0 0 0 0  0 0 0 0.5 0" type="matrix" in="shadowBlurOuter1" result="shadowMatrixOuter1"></feColorMatrix>
            <feMerge>
                <feMergeNode in="shadowMatrixOuter1"></feMergeNode>
                <feMergeNode in="SourceGraphic"></feMergeNode>
            </feMerge>
        </filter>
    </defs>
    <g id="Page-1" stroke="none" stroke-width="1" fill="none" fill-rule="evenodd">
        <g id="_ionicons_svg_ios-cog-(1)" filter="url(#filter-1)" transform="translate(4.000000, 2.000000)" fill="#FFFFFF" fill-rule="nonzero">
            <path d="M408.9,192.2 L382.8,188 C379.3,187.4 376.7,184.7 376.2,181.2 C375.7,178 375.2,174.8 374.5,171.7 C373.8,168.3 375.4,164.8 378.4,163.1 L401.5,150.3 C405.1,148.5 406.8,144.2 405.4,140.4 L401.4,129.4 C400,125.6 396,123.4 392,124.4 L366.1,129.4 C362.7,130.1 359.2,128.4 357.5,125.3 C356,122.5 354.4,119.7 352.7,116.9 C350.9,113.9 351.1,110.1 353.4,107.4 L370.7,87.5 C373.5,84.5 373.6,80 371,76.9 L363.5,67.9 C360.9,64.8 356.4,64.1 353,66.4 L330.3,80 C327.3,81.8 323.5,81.4 320.9,79.1 C318.5,77 316,74.9 313.5,72.9 C310.8,70.7 309.7,67 311,63.8 L320.4,39.1 C322,35.4 320.6,31 317.1,29 L306.9,23.1 C303.4,21.1 298.9,22 296.5,25.3 L279.9,46.1 C277.9,48.6 275,49.9 271.4,48.6 C271.4,48.6 265.8,46.3 261.6,44.9 C258.3,43.8 256,40.7 256.1,37.2 L256.5,10.8 C256.7,6.7 253.9,3.1 249.9,2.4 L238.3,0.4 C234.3,-0.3 230.4,2.1 229.2,6 L220.6,31 C219.5,34.3 216.3,36.5 212.8,36.4 C211.2,36.4 209.5,36.3 207.9,36.3 C206.3,36.3 204.6,36.3 203,36.4 C199.5,36.5 196.4,34.3 195.2,31 L186.6,6 C185.4,2.1 181.5,-0.3 177.5,0.4 L165.9,2.4 C161.9,3.1 159.1,6.7 159.3,10.8 L159.7,37.2 C159.8,40.7 157.6,43.6 154.2,44.9 C151.9,45.8 146.9,47.7 144.5,48.6 C141.7,49.6 138.4,48.8 135.7,45.7 L119.2,25.4 C116.8,22.1 112.3,21.2 108.8,23.2 L98.6,29.1 C95.1,31.1 93.6,35.5 95.3,39.2 L104.7,63.9 C105.9,67.2 104.9,70.9 102.2,73 C99.7,75 97.2,77.1 94.8,79.2 C92.2,81.5 88.4,81.9 85.4,80.1 L63,66.3 C59.6,64.1 55.1,64.7 52.5,67.8 L45,76.8 C42.4,79.9 42.5,84.5 45.3,87.4 L62.6,107.3 C64.9,109.9 65.2,113.8 63.3,116.8 C61.6,119.5 60,122.3 58.5,125.2 C56.8,128.3 53.4,129.9 49.9,129.3 L24,124.3 C20,123.4 16,125.5 14.6,129.3 L10.6,140.3 C9.2,144.1 10.9,148.4 14.5,150.2 L37.6,163 C40.7,164.7 42.2,168.2 41.5,171.6 C40.9,174.8 40.3,177.9 39.8,181.1 C39.3,184.6 36.6,187.3 33.2,187.9 L7.1,192.1 C3.1,192.6 0,196 0,200 L0,211.7 C0,215.8 3,219.2 7.1,219.6 L33.2,223.8 C36.7,224.4 39.3,227.1 39.8,230.6 C40.3,233.8 40.8,237 41.5,240.1 C42.2,243.5 40.6,247 37.6,248.7 L14.5,261.5 C10.9,263.3 9.2,267.6 10.6,271.4 L14.6,282.4 C16,286.2 20,288.4 24,287.4 L49.9,282.4 C53.3,281.7 56.8,283.4 58.5,286.5 C60,289.3 61.6,292.1 63.3,294.9 C65.1,297.9 64.9,301.7 62.6,304.4 L45.3,324.3 C42.5,327.3 42.4,331.8 45,334.9 L52.5,343.9 C55.1,347 59.6,347.7 63,345.4 L85.7,331.8 C88.7,330 92.5,330.4 95.1,332.7 C97.5,334.8 100,336.9 102.5,338.9 C105.2,341.1 106.3,344.8 105,348 L95.6,372.7 C94,376.4 95.4,380.8 98.9,382.8 L109.1,388.7 C112.6,390.7 117.1,389.8 119.5,386.5 L136.3,365.9 C138.4,363.3 141.8,362.2 144.5,363.3 C147.9,364.7 150.2,365.5 154.4,366.9 C157.7,368 160,371.1 159.9,374.6 L159.5,401 C159.3,405.1 162.1,408.7 166.1,409.4 L177.7,411.4 C181.7,412.1 185.6,409.7 186.8,405.8 L195.4,380.8 C196.5,377.5 199.7,375.3 203.2,375.4 C204.8,375.4 206.5,375.5 208.1,375.5 C209.7,375.5 211.4,375.5 213,375.4 C216.5,375.3 219.6,377.5 220.8,380.8 L229.4,405.8 C230.6,409.7 234.5,412.1 238.5,411.4 L250.1,409.4 C254.1,408.7 256.9,405.1 256.7,401 L256.3,374.6 C256.2,371.1 258.5,368 261.8,366.9 C266,365.5 268.8,364.4 271.4,363.4 C274,362.5 277.2,362.4 279.7,365.5 L296.7,386.4 C299.1,389.7 303.6,390.6 307.1,388.6 L317.3,382.7 C320.8,380.7 322.3,376.3 320.6,372.6 L311.2,347.9 C310,344.6 311,340.9 313.7,338.8 C316.2,336.8 318.7,334.7 321.1,332.6 C323.7,330.3 327.5,329.9 330.5,331.7 L353.2,345.3 C356.6,347.5 361.1,346.9 363.7,343.8 L371.2,334.8 C373.8,331.7 373.7,327.1 370.9,324.2 L353.6,304.3 C351.3,301.7 351,297.8 352.9,294.8 C354.6,292.1 356.2,289.3 357.7,286.4 C359.4,283.3 362.8,281.7 366.3,282.3 L392.2,287.3 C396.2,288.2 400.2,286.1 401.6,282.3 L405.6,271.3 C407,267.5 405.3,263.2 401.7,261.4 L378.6,248.6 C375.5,246.9 374,243.4 374.7,240 C375.3,236.8 375.9,233.7 376.4,230.5 C376.9,227 379.6,224.3 383,223.7 L409.1,219.5 C413.1,219 416.2,215.6 416.2,211.6 L416.2,199.9 C416,196.1 413,192.6 408.9,192.2 L408.9,192.2 Z M133.8,306.9 C128.6,315.9 116.4,317.6 108.8,310.5 C81.2,284.2 64,247.1 64,206 C64,165.1 81.1,128.1 108.5,101.9 C116,94.7 128.3,96.4 133.5,105.4 L189.5,202 C190.9,204.5 190.9,207.5 189.5,210 L133.8,306.9 Z M348,239.7 C332.9,303 275.9,350 208,350 C193.9,350 180.2,348 167.4,344.2 C157.5,341.3 152.9,329.8 158.1,320.9 L213.8,224 C215.2,221.5 217.9,220 220.7,220 L332.4,220 C342.8,220 350.4,229.6 348,239.7 Z M332.5,192 L220.7,192 C217.8,192 215.2,190.5 213.8,188 L157.7,91.3 C152.5,82.4 157,70.9 166.9,67.9 C179.9,64 193.7,62 208,62 C275.9,62 332.9,109 348,172.3 C350.4,182.4 342.8,192 332.5,192 Z" id="Shape"></path>
        </g>
    </g>
</svg>